# xmcd
#
# Track frame offsets: 
#        150
#        21809
#        40062
#        58515
#        78379
#        97720
#        116975
#        133364
#        153219
#        171507
#        192860
#        211705
#        232186
#        254480
#
# Disc length: 3664 seconds
#
# Revision: 0
# Processed by: cddbd v1.5.2PL0 Copyright (c) Steve Scherf et al.
# Submitted via: ExactAudioCopy v1.0b3
#
DISCID=bd0e4e0e
DTITLE=雷婷 - 难忍的悲
DYEAR=1900
DGENRE=
TTITLE0=难忍的悲
TTITLE1=今生的爱前世的债
TTITLE2=爱情惹的祸
TTITLE3=我们的爱还在不在
TTITLE4=穿越时空的爱情
TTITLE5=我不是你最爱的女人
TTITLE6=青衣
TTITLE7=伊人红妆
TTITLE8=爱情的功课
TTITLE9=能够爱多久
TTITLE10=你的温柔给了谁
TTITLE11=等一个晴天
TTITLE12=爱不在就放手
TTITLE13=那就这样吧
EXTD=
EXTT0=
EXTT1=
EXTT2=
EXTT3=
EXTT4=
EXTT5=
EXTT6=
EXTT7=
EXTT8=
EXTT9=
EXTT10=
EXTT11=
EXTT12=
EXTT13=
PLAYORDER=
